/* XPM */
static char *_8b9c287736841c3eabf12f946df3c3fiH0pDkkbL57j3et1[] = {
/* columns rows colors chars-per-pixel */
"32 32 5 1 ",
"  c None",
". c #081820",
"X c #346856",
"o c #88C070",
"O c #E0F8D0",
/* pixels */
"                                ",
"                                ",
"                                ",
"                                ",
"                                ",
"                                ",
"                                ",
"                                ",
"                                ",
"                                ",
"                                ",
"                                ",
"                                ",
"                                ",
"                                ",
"                                ",
"        OOOO................    ",
"       OOOXoXXXXXXXXXXXX.XX.    ",
"      OOXXoXXXXXXXXXXXX.XX..    ",
"     OXXooXXoo....XXXX.XX.XX    ",
"    OXXooXXoo....XXX.XX..XX.    ",
"   OXXoXXXXXXoo..XXXXXXX.XX.    ",
"  OXXoXXXXXXXXooXXXXXXXX.XX..   ",
" OOXXoXXXXXXXXXX.XXXXXXXX.XX.   ",
" OXXoXXXXXXXXXX.XXXXXXXX.XX..   ",
" ooXXoXXoo....XXooXXXX.XX.XX    ",
" oXXoXXXXoo..XXXXXXoo.XX..XX.   ",
" ooXXoXXXXXXXXXXXXXoXXXXX.XX.   ",
" oXXoXXXXXXXXXXXXXXoXXXXX.XX..  ",
" oooo...............XXXXXXXX.   ",
" ooooooooooooooooooooooooooo    ",
"                                ",
"                                "
};
