/* XPM */
static char *_353b112c21b42a9bdbdaf345a77ad4eXhhAO6ryHDXvW96U[] = {
/* columns rows colors chars-per-pixel */
"32 32 5 1 ",
"  c #081820",
". c #1D2B33",
"X c #346856",
"o c #88C070",
"O c #E0F8D0",
/* pixels */
".OoX oX..OoX oX..OoX oX..OoX oX.",
"X.OooX.OX.OooX.OX.OooX.OX.OooX.O",
"oX.OX.OooX.OX.OooX.OX.OooX.OX.Oo",
"XoX..OoOXoX..OoOXoX..OoOXoX..OoO",
" oX..OoX oX..OoX oX..OoX oX..OoX",
"oX.OX.OooX.OX.OooX.OX.OooX.OX.Oo",
"X.OooX.OX.OooX.OX.OooX.OX.OooX.O",
".OoOXoX..OoOXoX..OoOXoX..OoOXoX.",
".OoX oX..OoX oX..OoX oX..OoX oX.",
"X.OooX.OX.OooX.OX.OooX.OX.OooX.O",
"oX.OX.OooX.OX.OooX.OX.OooX.OX.Oo",
"XoX..OoOXoX..OoOXoX..OoOXoX..OoO",
" oX..OoX oX..OoX oX..OoX oX..OoX",
"oX.OX.OooX.OX.OooX.OX.OooX.OX.Oo",
"X.OooX.OX.OooX.OX.OooX.OX.OooX.O",
".OoOXoX..OoOXoX..OoOXoX..OoOXoX.",
".OoX oX..OoX oX..OoX oX..OoX oX.",
"X.OooX.OX.OooX.OX.OooX.OX.OooX.O",
"oX.OX.OooX.OX.OooX.OX.OooX.OX.Oo",
"XoX..OoOXoX..OoOXoX..OoOXoX..OoO",
" oX..OoX oX..OoX oX..OoX oX..OoX",
"oX.OX.OooX.OX.OooX.OX.OooX.OX.Oo",
"X.OooX.OX.OooX.OX.OooX.OX.OooX.O",
".OoOXoX..OoOXoX..OoOXoX..OoOXoX.",
".OoX oX..OoX oX..OoX oX..OoX oX.",
"X.OooX.OX.OooX.OX.OooX.OX.OooX.O",
"oX.OX.OooX.OX.OooX.OX.OooX.OX.Oo",
"XoX..OoOXoX..OoOXoX..OoOXoX..OoO",
" oX..OoX oX..OoX oX..OoX oX..OoX",
"oX.OX.OooX.OX.OooX.OX.OooX.OX.Oo",
"X.OooX.OX.OooX.OX.OooX.OX.OooX.O",
".OoOXoX..OoOXoX..OoOXoX..OoOXoX."
};
