/* XPM */
static char *_dc0cac23b094a7298855176f5647181gHxN7Dvqeqon1unc[] = {
/* columns rows colors chars-per-pixel */
"32 32 8 1 ",
"  c #081820",
". c #316553",
"X c #326654",
"o c #346856",
"O c #87BF6F",
"+ c #88C070",
"@ c #DEF6CE",
"# c #E0F8D0",
/* pixels */
"                                ",
"      X  X          X       X   ",
"  X  X      X   X      X  X  X  ",
" X         X       X            ",
"      X  X          X           ",
"  X  X       X   X        X  X  ",
"          @X        @o     X  X ",
"       X  Oo        Oo  X       ",
"  X          X X X              ",
"              X X o        X  X ",
"      @X    oooo oOoo   @o      ",
" X  X Oo  ooOoOoO+oOo   Oo  X   ",
"   X      oOoOo+o+OoOo       X  ",
"         XOoOo+@@+oOoo X  X     ",
"     X  X XOO+@++@+oOoX         ",
"  X      X Oo@+##+#+oo o        ",
"        X ooO@+@#+#o+ o      o  ",
"         XoOoO@++#+++o o  o     ",
"     .  . ooOoO@#+o+o+o         ",
"  .       XOoOOo+o+o+o      o   ",
"   .  @X   oOoOOo+o+oo  #o o  o ",
"      Oo   XXOX oooo    +o      ",
" .  .        X X o              ",
"              . o o          o  ",
"       .  @X        #o  o       ",
" .  .     Oo        +o          ",
"  .  .        .   o       o  o  ",
"           .          o  o      ",
"            .       o         o ",
"  .  .  .      X   o      o  o  ",
"   .       .          o  o      ",
"                                "
};
