/* XPM */
static char *_fb4e5cc0b644778e48e71de568cf19fhaYXjzUdMNdPrRYE[] = {
/* columns rows colors chars-per-pixel */
"32 32 5 1 ",
"  c None",
". c #081820",
"X c #346856",
"o c #88C070",
"O c #E0F8D0",
/* pixels */
"                                ",
"                                ",
"                                ",
"                                ",
"                                ",
"                                ",
"                                ",
"                                ",
"                                ",
"            ....                ",
"        ....OOOO....            ",
"       ..OOOOooXXOO..           ",
"       ..ooooOOoooo..           ",
"       ..ooooooOOoo..           ",
"   ....XX..XXooXXoX..OO..       ",
"  ..OOOO..ooXXooXXoo..oO..      ",
"  ..ooXXooXXooXXoXoOXXoo..      ",
"  ..ooooXXooXXooXoooXXoo..      ",
"  ..ooooXXooXXooXoooXXoo..      ",
"  ..ooooXXooXXooXoooXXoo..      ",
"  ..ooooXXooXXooXoooXXoo..      ",
"  ..ooooXXooXXooXoooXXoo..      ",
"  ..ooooXXooXXooXoooXXoo..      ",
"  ..ooooXXooXXooXoooXXoo..      ",
"  ..ooooXXooXXooXoooXXoo..      ",
"  ..ooooXXooXXooXoooXXoo..      ",
"   ..ooooooXXooXXooXXoo..       ",
"    ..ooooXXooXXooXXoo..        ",
"     ..XoooXXooXXooXX..         ",
"       ..XXoXXooXXoo..          ",
"         ....XXooXX..           ",
"                                ",
"                                "
};
