/* XPM */
static char *da1895672d334e53d57a4c48f3c77e1aXlzRV66Qlm8lI37E_0[] = {
/* columns rows colors chars-per-pixel */
"32 32 4 1 ",
"  c #071821",
". c #306850",
"X c #86C06C",
"o c #E0F8CF",
/* pixels */
"................................",
"................................",
"............        ............",
"............        ............",
"........ XXXXXXXXXXXX ..........",
"........ XXXXXXXXXXXX ..........",
"....... XXXXXXXXXXXXXX .........",
"....... XXXXXXXXXXXXXX .........",
"....... XXXXXXXXXX    ..........",
"....... XXXXXXXXXX    ..........",
"....... XXooXXooXX    ..........",
"....... XXooXXooXX    ..........",
"....... XXooXXoo  o   ..........",
"....... XXooXXoo  o   ..........",
"....... XXXXooXXoo    ..........",
"....... XXXXooXXoo    ..........",
"........ XXXXXXXXoo  ...........",
"........ XXXXXXXXoo  ...........",
"............        ............",
"............        ............",
"............ XXXXoo  ...........",
"............ XXXXoo  ...........",
"............ XX  oo  ...........",
"............ XX  oo  ...........",
"............ XXoo  X ...........",
"............ XXoo  X ...........",
"............  XXXXX  ...........",
"............  XXXXX  ...........",
"............   XXXX  ...........",
"............   XXXX  ...........",
"............   oooo  ...........",
"............   oooo  ..........."
};
